<svg xmlns="http://www.w3.org/2000/svg" viewBox="0 0 1155.17 802.3"><defs><style>.cls-1{fill:#989898;}</style></defs><g id="Capa_2" data-name="Capa 2"><g id="Capa_1-2" data-name="Capa 1"><path class="cls-1" d="M0,199.57c14.75-7.87,28.78-17.93,44.37-23.29C213,118.23,381.63,60.4,550.81,4.17c17.19-5.71,39.39-5.48,56.64.24C778.5,61.17,949,119.67,1119.66,177.7c4.26,1.45,9.66,1.91,12.49,4.86,8.79,9.2,23.71,20,23,29-.88,11.25-13,26.8-23.81,31.08C1087,260.18,1041.45,274.73,996,289c-16.43,5.17-24.26,13.29-21.27,31.19a65.91,65.91,0,0,1,0,19.28c-2.94,21.82,3.87,35.45,23.56,48.5,47.65,31.61,56.08,115.86-16.59,159.53,16,66.52,32.33,133.86,48.49,201.25,10.1,42.12,1.32,53.34-41.63,53.44-30.67.06-61.35.13-92,0-37.86-.19-48.13-13.68-39-51.77,14.09-58.82,27.89-117.73,43.18-176.23,4.63-17.72,4.1-28.24-12.4-41-47-36.43-48.55-109-.35-142.26,28.67-19.8,29.84-41.06,24.15-72-36.84,12.22-73.42,24.16-109.87,36.48C737.39,377.33,673,400.64,607.61,420.7c-17.45,5.35-39.21,5.86-56.47.37C455.9,390.77,361.45,357.9,266.71,326c-6.6-2.22-13.4-3.86-22.9-6.57,0,41.22-1.12,79.74.86,118.09.44,8.48,10.42,18.43,18.42,24.2,78.69,56.71,168,83.35,262.77,90.72,95.38,7.42,188.92-3,278.46-40.23,18.65-7.75,37.1-7.59,45.12,14.52,7.57,20.89-3,35.48-23,42.6C616.63,644,414.87,636,223.94,509.85c-29.15-19.26-44.27-42-41-79.25,3.26-37.45-.16-75.45,1.13-113.15.54-16.06-5.43-22.57-19.56-27.14-44.55-14.39-89-29.25-132.83-45.7C19.94,240.21,10.49,229.49,0,221.67Zm1023.18,11.72c-3.43-1.84-6.42-4-9.75-5.15-139.09-47.21-278.1-94.65-417.5-140.9-11.6-3.85-26.73-2.5-38.64,1.44-96.67,31.93-193,65-289.38,97.81-45,15.31-90,30.67-139.78,47.61,10.81,4.39,16.33,7,22.05,8.9,102.3,34.86,206.67,64.52,306.31,106,85.29,35.52,164.31,38.82,247.22-1.92,33.48-16.45,70.59-25.22,106-37.49-75.88-17.33-150.93-30.77-226.16-43.12-21.8-3.57-37.27-13.27-33.77-36.83,3.66-24.66,23.44-27.61,44-24.12,79,13.42,158,26.69,236.91,40.81C896,236,961.53,256,1023.18,211.29ZM951.75,426.65l-12.6-.37c-8.27,10.91-21.21,20.82-23.74,33-3.9,18.77,9.08,31.92,27.9,32.56s32.69-11.64,30.1-30.58C971.72,448.91,959.34,438.12,951.75,426.65Zm14.07,312.93c-6.7-27.39-12.92-52.79-19.15-78.2l-5.06,0-18.48,78.15Z"/></g></g></svg>