<svg xmlns="http://www.w3.org/2000/svg" viewBox="0 0 930.01 683.62"><defs><style>.cls-1{fill:#989898;}</style></defs><g id="Capa_2" data-name="Capa 2"><g id="Capa_1-2" data-name="Capa 1"><path class="cls-1" d="M867.63,207H167.15c-5.5,0-11,.05-16.49,0-28.94-.29-43.77-10.8-44.17-31.26-.4-20.19,14.19-30.63,43.71-30.63q344-.1,687.92,0h27.6c5.31-43.24-27-79.77-71.8-83.09-12.5-.93-25.12-.32-37.68-.32q-301.56,0-603.11,0c-6.29,0-14.44,2.46-18.48-.57-10.29-7.69-23.49-16.4-26.78-27.34C103.07,17.81,114.74,5.55,131,1.1c6.62-1.81,14-.84,21.1-.84Q467.79.2,783.48.25C870,.26,929.84,60,929.91,146.57q.18,195.54,0,391.08c-.09,86.31-60.14,145.92-146.84,145.94q-318,.06-636.1,0C60.25,683.57.16,624,.08,537.73Q-.13,343.36.06,149c0-28.4,9.5-41.06,30.24-40.91,20.57.15,30.89,13.53,30.92,41.26q.16,190.83.09,381.66c0,60,31.28,91.14,91.3,91.16q312.17.09,624.32,0c60.39,0,91.6-30.82,91.69-90.72q.23-150.78,0-301.56C868.62,223,868,216.18,867.63,207Z"/><path class="cls-1" d="M122.33,411.37c0-25.09-.41-50.19.12-75.27.47-22.42,10.81-33.41,33.18-33.68q76.45-.9,152.9.05c20.2.26,32.2,11.5,32.31,32.44q.42,77.63,0,155.26c-.08,21.16-12.33,32.22-32.3,32.53q-76.44,1.18-152.9.09c-21.05-.27-33.57-11.15-33.4-33.79C122.49,463.13,122.33,437.25,122.33,411.37ZM184.87,460h93V365h-93Z"/><path class="cls-1" d="M616.74,443.32c-48.59,0-97.19.15-145.78-.05-25-.1-38.1-11.34-37.62-31.52.46-19.25,13-29.76,37-29.81q147-.27,293.9,0c25,0,38.34,11.58,37.8,31.56-.52,19.15-13.16,29.64-37.2,29.76C715.49,443.49,666.11,443.32,616.74,443.32Z"/></g></g></svg>