<svg xmlns="http://www.w3.org/2000/svg" viewBox="0 0 930.01 652.92"><defs><style>.cls-1{fill:#989898;}</style></defs><g id="Capa_2" data-name="Capa 2"><g id="Capa_1-2" data-name="Capa 1"><path class="cls-1" d="M930,542.78v16.84c0,50.06-42.72,93-110,93q-355,.54-710.06,0C54,652.55,0,629.87,0,560V92.88c1.2-3.17,2.68-6.27,3.57-9.52C17.72,31.49,56.31.36,110,.28q355-.54,710.08,0c56.06.1,110,27.83,110,92.6ZM464.56,609.67q173.54,0,347.05,0c49.21,0,74.86-25.14,75.59-74.6.43-28.92.09-57.85.09-86.77,0-108.82-.71-217.64.29-326.45.5-54.6-34.38-79.54-78.19-79.27-231.35,1.44-462.72.65-694.08.7-44.34,0-71.92,24.85-72.19,69.42q-1.32,213.84,0,427.68c.28,44.55,27.89,69.26,72.32,69.28Q290,609.74,464.56,609.67Z"/><path class="cls-1" d="M567.93,329c49.19,36.83,96.35,72.19,143.57,107.48Q770.2,480.36,829,524.07c1.11.82,2.21,1.65,3.31,2.48,12,9,21.48,19.88,10.4,34.57-10.71,14.19-23.87,9.61-36.14.44Q746.21,516.49,685.8,471.5C634.58,433.28,583.39,395,530,355.11c-44.66,51.48-90.82,53.73-135.09,0L170,524.89c-16.47,12.44-33.06,24.72-49.43,37.28-11.79,9.05-24.48,12.47-34.48-.46C75.43,548,82,536.6,94.83,527q126.31-94.74,252.24-190c2.7-2,5.23-4.29,9.79-8.06-32.28-24.82-63.65-49.05-95.14-73.13q-82-62.7-164.07-125.26c-3.28-2.51-6.35-5.29-9.58-7.86C77.26,114,74.2,103.05,82.43,92c9.1-12.27,21.51-10.94,32.68-2.53,39.58,29.8,78.91,59.93,118.25,90,71.58,54.77,143.31,109.35,214.42,164.72,11,8.58,17.87,7.41,28.27-.41Q642.71,218.57,810.16,94.41c6.71-5,16.18-9.65,23.8-8.87,6.23.63,16.49,9.8,16.29,14.83-.36,8.82-5.11,20.27-11.94,25.57-48.91,38-98.82,74.62-148.39,111.72C649.88,267.62,609.87,297.61,567.93,329Z"/></g></g></svg>