<svg xmlns="http://www.w3.org/2000/svg" viewBox="0 0 835.05 1011.53"><defs><style>.cls-1{fill:#989898;}</style></defs><g id="Capa_2" data-name="Capa 2"><g id="Capa_1-2" data-name="Capa 1"><path class="cls-1" d="M417.72,1011.51q-128.49,0-257,0c-77,0-139.6-49.42-156.8-124.33A154.65,154.65,0,0,1,.25,853.12q-.39-184.2-.09-368.4C.33,404.33,56.84,344.07,126.34,330c8.29-1.68,16.87-2.17,25.35-2.63,4.71-.26,6.14-1.87,6.16-6.58.08-18.43-.15-36.91,1.05-55.28C163,202.93,178.78,144,217.69,93.4,255,44.87,304.65,16.06,364.8,4.88a278.09,278.09,0,0,1,76.35-3.77c100.86,9.3,172.06,60,211.19,154,13.4,32.19,20.79,66,23,100.72,1.4,21.66,1.6,43.41,2,65.13.08,4.88,1.76,6.31,6.33,6.39,70.41,1.27,133.52,53.83,147.47,123.53a189.06,189.06,0,0,1,3.7,36.68c.27,121.06,0,242.12.22,363.18.13,80.18-52.31,134.8-109.06,153.07a165.59,165.59,0,0,1-50.77,7.68Q546.47,1011.64,417.72,1011.51Zm-.19-89.44q128.24,0,256.48,0c27.45,0,48.76-10.83,62.91-34.72,7-11.76,8.66-24.74,8.66-38.12q0-176.38,0-352.78c0-6.08-.27-12.16-.54-18.24-1.46-33.38-31.34-61.92-65.38-61.88q-262,.28-523.93.06c-16.84,0-31.33,5.83-43.7,17-15.69,14.15-22.42,32.16-22.39,53q.11,61.84,0,123.68,0,120.28,0,240.58c0,30.65,13.34,52.94,41.38,66,9.83,4.57,20.42,5.4,31.08,5.41Q289.82,922.09,417.53,922.07Zm-.45-595.42c48.05,0,96.11-.06,144.17.1,4.82,0,6.31-1.39,6.16-6.18-.57-17.9-.3-35.83-1.23-53.7a214.62,214.62,0,0,0-16.9-74.27C532.23,153,504,126,461.4,115.34c-22.4-5.57-45.14-6.16-67.9-3.47-33,3.91-61.52,17.11-83.35,42.87-24.88,29.37-36,64.4-39.89,101.78-2.18,21-1.54,42.34-2.47,63.52-.24,5.28,1.35,6.76,6.68,6.73C322,326.57,369.54,326.65,417.08,326.65Z"/><path class="cls-1" d="M381.23,740.48c0-13-.13-26.09.08-39.13.06-4.05-1.18-6.56-4.66-9-20.71-14.27-32.23-34.21-32.66-59.27-.65-38.22,26.37-68,61.62-73.75A73.22,73.22,0,0,1,488.73,613c8,29.81-3.61,61.2-29.67,79.12-3.74,2.57-5.23,5.18-5.19,9.72q.31,38.87.05,77.74c-.11,18.93-12.57,33.57-29.82,37-19.56,3.85-42.13-10.65-42.77-35.32-.35-13.56-.06-27.13-.06-40.7Z"/></g></g></svg>