<svg xmlns="http://www.w3.org/2000/svg" viewBox="0 0 1007.46 960.29"><defs><style>.cls-1{fill:#989898;}</style></defs><g id="Capa_2" data-name="Capa 2"><g id="Capa_1-2" data-name="Capa 1"><path class="cls-1" d="M503.23,960.11H61.93c-57.94,0-66.1-9-60.4-66.73C16.35,743.47,122,624.38,269,593.43c23-4.84,47-6.48,70.6-6.63q163.7-1,327.41-.2c169,.85,306.87,117.28,336,283.26,2.59,14.74,3.49,29.83,4.3,44.81,1.6,29.57-11.71,44.57-41.46,45.21-36.36.77-72.75.22-109.13.22ZM72.87,888.57H932.19c0-5.19.55-9.17-.08-13C911.79,754.77,801.43,659.16,678,657.79c-116.15-1.29-232.32-.53-348.49-.18-57.25.17-108.52,19.51-153.39,54.16C118.79,756,83.93,814,72.87,888.57Z"/><path class="cls-1" d="M496.89.19C640-5.32,765.57,112.49,771.31,257.75c5.86,148.44-110.86,275.17-258.61,280.79-150.59,5.73-275.09-111.36-280.56-263.86C226.9,128.3,344.83,6,496.89.19ZM700.16,268.92c0-109.66-89.41-199.37-198.49-199.15-108.85.22-199.62,90.75-199.58,199S393.11,468,501.56,468C610.76,468,700.15,378.39,700.16,268.92Z"/></g></g></svg>